<svg width="480" height="480" viewBox="0 0 480 480" fill="none" xmlns="http://www.w3.org/2000/svg">
<rect width="480" height="480" fill="#FFF7E9"/>
<path d="M287.551 418C292.551 393.167 280.691 386.392 351 357C404.337 334.703 412.949 266.917 402.572 239.542C400.275 233.481 393.092 233.125 386.625 232.695C363.362 231.148 350.116 183.947 315 162C303.552 154.845 287.5 144 265 137.5C244.74 131.647 248.17 93.4961 253.677 69.4096C254.397 66.2611 251.388 63.472 248.375 64.6347C174.583 93.1066 47.3546 183.552 77.5506 341.5" stroke="#638DA0" stroke-width="6" stroke-linecap="round"/>
<path d="M423.69 218.095C424.947 217.854 426.203 217.482 427.44 216.99C432.15 215.135 436.617 210.694 436.106 206.202C436.036 205.116 435.583 204.131 434.88 203.317C435 202.533 435.071 201.718 435.051 200.864C435.442 201.145 435.805 201.467 436.146 201.819C437.212 202.915 437.956 204.443 438.107 206.011C438.536 211.647 433.599 216.528 428.073 218.608C425.107 219.734 422.101 220.096 419.307 220.006C420.734 219.533 422.212 218.91 423.68 218.106L423.69 218.095ZM434.125 196.299C434.002 195.978 433.759 195.435 433.543 195.123C437.75 186.695 436.283 176.335 433.482 173.428C433.311 172.684 433.1 171.96 432.859 171.236C432.778 170.985 432.678 170.713 432.577 170.432L432.939 170.643C433.341 170.854 433.673 171.135 434.005 171.427C438.63 174.913 439.426 187.242 434.125 196.299Z" fill="#638DA0"/>
<path d="M393.779 212.345C393.779 212.943 393.51 213.473 393.093 213.838C393.097 213.839 393.1 213.841 393.104 213.842C393.577 213.963 394.15 213.983 394.693 213.852C394.813 213.832 394.934 213.812 395.064 213.772C395.064 213.058 395.095 212.123 395.125 210.987C396.039 198.162 400.476 185.311 407.069 175.237C409.763 171.158 413.567 166.512 418.097 164.731C422.4 163.02 426.473 164.559 428.623 167.274C429.789 168.742 430.453 170.351 430.946 171.869C432.695 177.135 432.725 183.061 430.715 188.97C430.161 190.548 429.488 191.956 428.754 193.202C437.696 198.049 432.596 216.72 413.352 219.321C411.04 219.623 408.938 219.553 407.119 219.311C408.783 222.635 408.244 225.615 408.195 227.987C408.127 227.735 408.523 224.703 404.726 221.332C401.888 218.757 398.68 218.906 396 217.622C394.248 216.747 392.879 216.05 392.109 214.305C392.109 214.304 392.108 214.303 392.108 214.303C392.004 214.319 391.899 214.335 391.79 214.335C390.691 214.335 389.8 213.444 389.8 212.345C389.801 209.715 393.779 209.711 393.779 212.345ZM398.835 213.028C401.074 213.263 404.263 214.93 406.355 218.035C408.305 218.075 410.587 217.894 413.03 217.381C419.681 216.008 426.87 211.183 429.015 204.855C430.828 199.6 428.725 195.181 423.375 195.314C421.013 195.364 418.489 196.299 416.177 197.274C411.562 199.295 407.551 201.989 404.646 204.895C401.73 207.78 399.589 210.545 398.352 212.646C398.282 212.767 398.211 212.877 398.141 212.998C398.362 212.988 398.594 212.998 398.835 213.028ZM396.432 213.34C396.734 213.239 397.075 213.129 397.457 213.068C397.548 212.837 397.648 212.586 397.749 212.324C398.744 210.062 400.353 206.815 403.198 203.537C406.033 200.29 409.914 196.812 414.93 194.489C417.077 193.399 420.535 192.174 423.265 192.036C424.592 191.966 425.99 192.117 427.336 192.579C427.899 191.302 428.422 189.895 428.834 188.377C430.95 180.812 428.597 172.119 426.18 169.285C424.544 167.416 422.096 166.741 419.384 167.878C415.902 169.326 412.03 173.844 409.783 177.087C403.596 185.996 397.518 201.074 395.809 211.078C395.607 212.133 395.446 213.018 395.336 213.702C395.668 213.611 396.03 213.48 396.432 213.34Z" fill="#638DA0"/>
<path d="M391.078 207.558C391.133 208.955 391.855 209.296 391.922 209.396C391.822 209.314 390.784 209.108 390.518 207.623C389.858 204.462 395.145 200.172 388.607 198.826C388.22 198.733 387.999 198.68 387.999 198.68C389.189 198.715 391.285 198.36 392.411 200.115C394.095 202.762 390.916 205.386 391.078 207.558Z" fill="#638DA0"/>
<path d="M388.403 208.064C388.69 208.792 389.169 208.828 389.226 208.868C389.153 208.844 388.516 208.943 388.091 208.21C387.132 206.67 389.405 203.346 385.38 203.939C385.139 203.967 385.002 203.983 385.002 203.983C385.696 203.764 386.843 203.158 387.814 203.862C389.271 204.925 387.912 206.948 388.403 208.064Z" fill="#638DA0"/>
</svg>
