<svg width="280" height="280" viewBox="0 0 280 280" fill="none" xmlns="http://www.w3.org/2000/svg">
<rect width="280" height="280" rx="140" fill="white"/>
<path d="M167.738 243.833C170.654 229.347 163.736 225.394 204.75 208.249C233.367 196.287 239.912 161.875 236.069 144.005C234.706 137.669 227.063 137.43 221.262 134.54C210.117 128.987 201.992 105.901 183.75 94.4994C177.072 90.3255 167.708 83.9994 154.583 80.2077C143.606 77.0367 144.55 57.6142 147.314 43.6065C147.94 40.4378 144.931 37.6475 141.944 38.8748C98.5574 56.6975 28.0182 109.137 45.2375 199.208" stroke="#638DA0" stroke-width="6" stroke-linecap="round"/>
<g clip-path="url(#clip0_29_22)">
<path d="M247.152 127.224C247.885 127.083 248.618 126.866 249.34 126.579C252.087 125.497 254.693 122.906 254.395 120.286C254.354 119.653 254.09 119.078 253.679 118.603C253.75 118.146 253.791 117.67 253.779 117.172C254.008 117.336 254.219 117.524 254.418 117.729C255.04 118.368 255.474 119.26 255.562 120.175C255.812 123.462 252.932 126.309 249.709 127.523C247.979 128.18 246.225 128.391 244.595 128.338C245.428 128.062 246.29 127.699 247.146 127.23L247.152 127.224ZM253.239 114.509C253.168 114.322 253.025 114.005 252.899 113.823C255.354 108.907 254.498 102.863 252.864 101.168C252.765 100.734 252.641 100.311 252.501 99.8891C252.454 99.7425 252.395 99.5841 252.337 99.4199L252.548 99.5431C252.782 99.6662 252.976 99.8304 253.169 100.001C255.867 102.034 256.331 109.226 253.239 114.509Z" fill="#638DA0"/>
<path d="M229.704 123.868C229.704 124.217 229.548 124.526 229.304 124.739C229.307 124.74 229.308 124.741 229.311 124.742C229.586 124.812 229.92 124.824 230.237 124.747C230.308 124.736 230.378 124.724 230.454 124.701C230.454 124.284 230.472 123.739 230.489 123.076C231.023 115.595 233.611 108.098 237.457 102.222C239.028 99.8425 241.247 97.1321 243.89 96.0933C246.4 95.0952 248.776 95.9932 250.03 97.577C250.71 98.4332 251.097 99.3716 251.385 100.257C252.405 103.329 252.423 106.786 251.25 110.233C250.927 111.153 250.535 111.974 250.106 112.702C255.323 115.529 252.347 126.42 241.122 127.938C239.773 128.114 238.547 128.073 237.486 127.932C238.457 129.871 238.142 131.609 238.113 132.993C238.074 132.846 238.305 131.077 236.09 129.111C234.435 127.609 232.563 127.696 231 126.947C229.978 126.436 229.179 126.03 228.73 125.011C228.73 125.011 228.73 125.011 228.73 125.011C228.669 125.02 228.608 125.029 228.544 125.029C227.903 125.029 227.383 124.509 227.383 123.868C227.384 122.334 229.704 122.332 229.704 123.868ZM232.653 124.267C233.959 124.404 235.82 125.376 237.04 127.187C238.178 127.211 239.509 127.105 240.934 126.806C244.814 126.005 249.007 123.191 250.259 119.499C251.316 116.434 250.09 113.856 246.969 113.933C245.591 113.963 244.119 114.508 242.77 115.077C240.078 116.256 237.738 117.827 236.043 119.522C234.342 121.205 233.093 122.818 232.372 124.044C232.331 124.114 232.29 124.179 232.249 124.249C232.378 124.243 232.513 124.249 232.653 124.267ZM231.252 124.448C231.428 124.39 231.627 124.325 231.85 124.29C231.903 124.155 231.961 124.009 232.02 123.856C232.601 122.537 233.539 120.642 235.199 118.731C236.852 116.836 239.116 114.807 242.043 113.452C243.295 112.816 245.312 112.102 246.904 112.021C247.678 111.98 248.494 112.068 249.279 112.338C249.608 111.593 249.913 110.772 250.153 109.887C251.387 105.474 250.015 100.403 248.605 98.75C247.651 97.6596 246.222 97.2657 244.641 97.9289C242.609 98.7739 240.351 101.41 239.04 103.301C235.431 108.498 231.885 117.293 230.888 123.129C230.771 123.745 230.677 124.261 230.612 124.66C230.806 124.607 231.017 124.531 231.252 124.448Z" fill="#638DA0"/>
<path d="M228.129 121.076C228.161 121.891 228.582 122.09 228.621 122.148C228.563 122.1 227.958 121.981 227.802 121.114C227.417 119.27 230.502 116.767 226.688 115.983C226.462 115.928 226.333 115.897 226.333 115.897C227.027 115.918 228.249 115.711 228.907 116.734C229.889 118.278 228.034 119.809 228.129 121.076Z" fill="#638DA0"/>
<path d="M226.568 121.372C226.735 121.797 227.015 121.818 227.048 121.841C227.006 121.827 226.634 121.884 226.386 121.457C225.827 120.559 227.153 118.62 224.805 118.966C224.664 118.982 224.584 118.991 224.584 118.991C224.989 118.864 225.658 118.51 226.225 118.921C227.074 119.541 226.282 120.721 226.568 121.372Z" fill="#638DA0"/>
</g>
<defs>
<clipPath id="clip0_29_22">
<rect x="221.083" y="95.084" width="38.5" height="38.5" fill="white"/>
</clipPath>
</defs>
</svg>
