<svg width="48" height="48" viewBox="0 0 48 48" fill="none" xmlns="http://www.w3.org/2000/svg">
<rect width="48" height="48" fill="#FFF7E9"/>
<path d="M28.7558 41.7992C29.2558 39.3159 28.0699 38.6384 35.1008 35.6992C40.4345 33.4695 41.2957 26.6909 40.258 23.9534C40.0282 23.3473 39.31 23.3117 38.6633 23.2687C36.337 23.114 35.0123 18.3939 31.5008 16.1992C30.3559 15.4837 28.7508 14.3992 26.5008 13.7492C24.4747 13.1639 24.8177 9.34883 25.3685 6.94018C25.4405 6.62533 25.1396 6.34642 24.8383 6.46269C17.4591 9.30988 4.73625 18.3544 7.75585 34.1492" stroke="#638DA0" stroke-width="0.6" stroke-linecap="round"/>
<g clip-path="url(#clip0_259_20)">
<path d="M42.3682 21.8093C42.4939 21.7852 42.6196 21.748 42.7432 21.6988C43.2142 21.5133 43.661 21.0692 43.6099 20.62C43.6028 20.5114 43.5576 20.4129 43.4872 20.3315C43.4993 20.2531 43.5063 20.1716 43.5043 20.0862C43.5435 20.1143 43.5797 20.1465 43.6139 20.1817C43.7204 20.2913 43.7948 20.4441 43.8099 20.6009C43.8528 21.1645 43.3591 21.6526 42.8065 21.8606C42.51 21.9732 42.2094 22.0094 41.9299 22.0004C42.0726 21.9531 42.2204 21.8908 42.3672 21.8104L42.3682 21.8093ZM43.4118 19.6297C43.3994 19.5976 43.3751 19.5433 43.3535 19.5121C43.7743 18.6693 43.6275 17.6333 43.3474 17.3426C43.3304 17.2682 43.3092 17.1958 43.2851 17.1234C43.2771 17.0983 43.267 17.0711 43.257 17.043L43.2931 17.0641C43.3334 17.0852 43.3665 17.1133 43.3997 17.1425C43.8622 17.4911 43.9418 18.724 43.4118 19.6297Z" fill="#638DA0"/>
<path d="M39.3785 21.2357C39.3785 21.2955 39.3516 21.3485 39.3099 21.3849C39.3103 21.3851 39.3106 21.3853 39.311 21.3854C39.3583 21.3975 39.4156 21.3995 39.4699 21.3864C39.4819 21.3844 39.494 21.3824 39.507 21.3784C39.507 21.307 39.5101 21.2135 39.5131 21.0999C39.6045 19.8173 40.0482 18.5323 40.7074 17.5249C40.9768 17.117 41.3573 16.6523 41.8103 16.4743C42.2406 16.3032 42.6479 16.4571 42.8629 16.7286C42.9795 16.8754 43.0459 17.0362 43.0952 17.1881C43.2701 17.7147 43.273 18.3073 43.072 18.8982C43.0167 19.056 42.9494 19.1967 42.876 19.3214C43.7702 19.8061 43.2602 21.6732 41.3358 21.9333C41.1046 21.9635 40.8944 21.9564 40.7125 21.9323C40.8789 22.2647 40.8249 22.5627 40.82 22.7999C40.8133 22.7747 40.8529 22.4715 40.4732 22.1344C40.1894 21.8769 39.8686 21.8918 39.6006 21.7634C39.4254 21.6758 39.2885 21.6062 39.2115 21.4316C39.2115 21.4316 39.2114 21.4315 39.2114 21.4315C39.201 21.4331 39.1905 21.4346 39.1796 21.4346C39.0697 21.4346 38.9806 21.3456 38.9806 21.2357C38.9806 20.9727 39.3785 20.9723 39.3785 21.2357ZM39.8841 21.304C40.108 21.3275 40.4269 21.4941 40.6361 21.8046C40.8311 21.8087 41.0593 21.7906 41.3036 21.7393C41.9687 21.6019 42.6876 21.1195 42.9021 20.4866C43.0834 19.9612 42.8731 19.5193 42.3381 19.5326C42.1019 19.5376 41.8495 19.6311 41.6183 19.7286C41.1568 19.9307 40.7557 20.2001 40.4652 20.4907C40.1736 20.7792 39.9594 21.0557 39.8358 21.2658C39.8288 21.2778 39.8217 21.2889 39.8147 21.301C39.8368 21.3 39.8599 21.301 39.8841 21.304ZM39.6438 21.3351C39.674 21.3251 39.7081 21.314 39.7463 21.308C39.7554 21.2849 39.7654 21.2597 39.7755 21.2336C39.875 21.0074 40.0359 20.6827 40.3204 20.3549C40.6039 20.0302 40.992 19.6823 41.4936 19.4501C41.7083 19.341 42.0541 19.2186 42.3271 19.2048C42.4598 19.1978 42.5995 19.2128 42.7342 19.2591C42.7905 19.1314 42.8428 18.9907 42.884 18.8388C43.0956 18.0824 42.8603 17.2131 42.6186 16.9297C42.455 16.7428 42.2101 16.6752 41.939 16.7889C41.5908 16.9338 41.2036 17.3856 40.9789 17.7098C40.3602 18.6008 39.7524 20.1085 39.5815 21.1089C39.5613 21.2145 39.5452 21.303 39.5342 21.3713C39.5674 21.3623 39.6036 21.3492 39.6438 21.3351Z" fill="#638DA0"/>
<path d="M39.1084 20.7558C39.1139 20.8955 39.1861 20.9296 39.1928 20.9396C39.1828 20.9314 39.079 20.9108 39.0524 20.7623C38.9864 20.4462 39.5151 20.0172 38.8613 19.8826C38.8226 19.8733 38.8005 19.868 38.8005 19.868C38.9195 19.8715 39.129 19.836 39.2417 20.0115C39.4101 20.2762 39.0922 20.5386 39.1084 20.7558Z" fill="#638DA0"/>
<path d="M38.8399 20.8072C38.8686 20.88 38.9165 20.8836 38.9222 20.8875C38.915 20.8852 38.8512 20.895 38.8087 20.8218C38.7128 20.6678 38.9401 20.3354 38.5376 20.3947C38.5135 20.3975 38.4998 20.3991 38.4998 20.3991C38.5692 20.3772 38.6839 20.3166 38.781 20.3869C38.9267 20.4933 38.7908 20.6956 38.8399 20.8072Z" fill="#638DA0"/>
</g>
<defs>
<clipPath id="clip0_259_20">
<rect width="6.6" height="6.6" fill="white" transform="translate(37.9004 16.3008)"/>
</clipPath>
</defs>
</svg>
